# xmcd CD database file
#
# Track frame offsets:
#	150
#	36176
#	83154
#	109156
#	148464
#	198483
#	228714
#
# Disc length: 3613 seconds
#
# Revision: 0
# Processed by: cddbd v1.5.2PL0 Copyright (c) Steve Scherf et al.
# Submitted via: CDex 1.51
#
DISCID=650e1b07
DTITLE=Wolfgang Muthspiel and Brian Blade - Friendly Travelers Live
DYEAR=2007
DGENRE=Jazz
TTITLE0=Between The Beats
TTITLE1=Youssou
TTITLE2=Shanghai
TTITLE3=Gnadenwald
TTITLE4=End Of 4
TTITLE5=Vallekilde
TTITLE6=Heavy Song
EXTD=YEAR: 2007
EXTT0=
EXTT1=
EXTT2=
EXTT3=
EXTT4=
EXTT5=
EXTT6=
PLAYORDER=
